<svg preserveAspectRatio="xMidYMid meet" viewBox="0 0 400.000000 400.000000" height="400.000000pt" width="400.000000pt" xmlns="http://www.w3.org/2000/svg" version="1.0">

<g stroke="none" fill="#000000" transform="translate(0.000000,400.000000) scale(0.100000,-0.100000)">
<path d="M992 1908 l3 -413 240 0 240 0 37 110 c20 61 37 118 37 128 1 15 -12
17 -144 17 l-145 0 0 285 0 285 -135 0 -135 0 2 -412z"></path>
<path d="M423 2296 c-190 -62 -316 -264 -283 -454 31 -180 166 -313 347 -343
131 -21 276 31 365 131 39 43 98 151 98 178 0 9 -34 12 -137 12 -134 0 -139
-1 -161 -25 -57 -60 -154 -57 -214 6 -48 50 -57 96 -32 157 35 83 127 121 201
83 22 -11 45 -27 52 -35 18 -22 291 -24 291 -3 0 8 -14 42 -31 76 -42 85 -113
155 -196 194 -59 27 -80 32 -163 34 -60 2 -110 -2 -137 -11z"></path>
<path d="M1767 2268 c-14 -41 -171 -525 -221 -688 -13 -41 -21 -79 -17 -83 4
-4 72 -6 151 -5 l143 3 16 60 16 60 101 3 102 3 6 -28 c4 -15 12 -45 17 -65
l10 -38 159 0 c88 0 160 4 160 9 0 8 -54 178 -170 536 -26 83 -56 178 -65 213
l-18 62 -187 0 -187 0 -16 -42z m216 -325 c24 -106 24 -103 -28 -103 -49 0
-51 3 -36 60 6 19 15 54 21 78 6 23 14 42 18 42 4 0 16 -35 25 -77z"></path>
<path d="M2595 2296 c-106 -33 -166 -88 -191 -173 -30 -105 6 -193 102 -245
27 -15 97 -36 157 -49 126 -26 145 -42 102 -85 -19 -19 -31 -23 -48 -18 -29 8
-57 34 -57 51 0 10 -30 13 -145 13 -162 0 -154 5 -130 -77 20 -66 89 -144 158
-177 182 -88 438 -33 507 108 24 51 29 160 10 212 -25 65 -101 112 -210 129
-79 12 -147 35 -165 55 -17 19 -17 21 0 40 27 30 76 23 93 -12 l13 -28 136 0
136 0 -5 44 c-11 94 -89 181 -191 211 -61 18 -216 19 -272 1z"></path>
<path d="M3120 1900 l0 -411 138 3 137 3 5 145 5 145 75 0 75 0 5 -145 5 -145
135 0 135 0 3 408 2 407 -140 0 -140 0 0 -140 0 -140 -80 0 -80 0 0 140 0 140
-140 0 -140 0 0 -410z"></path>
</g>
</svg>
