<svg xmlns="http://www.w3.org/2000/svg" id="Layer_1" data-name="Layer 1" viewBox="0 0 335 142"><defs><style>      .cls-1 {        fill-rule: evenodd;      }    </style></defs><path d="m253.1,0h-87.07c0,13.43,0,26.86,0,40.29v1.12c0,6.3,0,12.25,0,18.59h64.28c.11,0,.22,0,.32,0,.12,0,.24,0,.36,0,6.08,0,11,4.92,11,11s-4.92,11-11,11c-.12,0-.24,0-.36,0-.11,0-.21,0-.32,0h-64.31c0,10.01,0,19.98.02,29.95v.06s0,0,0,0h0c0,9.98.02,19.97.02,29.99h87.07c31.66,0,56.9-33.48,56.9-71.09S284.84,2.38,253.1,0Z"></path><path d="m79.36,81.99c-.12,0-.24,0-.36,0-6.08,0-11-4.92-11-11s4.92-11,11-11c.12,0,.24,0,.36,0,.11,0,.22,0,.32,0h64.28c0-6.34,0-12.3,0-18.59v-1.12c0-13.43,0-26.86,0-40.29H56.9C25.16,2.38,0,33.29,0,70.91s25.24,71.09,56.9,71.09h87.07c0-10.03,0-20.01.02-29.99h0s0-.06,0-.06c0-9.97.02-19.93.02-29.95h-64.31c-.11,0-.22,0-.32,0Z"></path><g><path class="cls-1" d="m320.5,0c-8.01,0-14.5,6.49-14.5,14.5s6.49,14.5,14.5,14.5,14.5-6.49,14.5-14.5-6.49-14.5-14.5-14.5Zm0,26.36c-6.55,0-11.86-5.31-11.86-11.86s5.31-11.86,11.86-11.86,11.86,5.31,11.86,11.86-5.31,11.86-11.86,11.86Z"></path><g><path class="cls-1" d="m314.79,11.93h-2.26v-1.39h6.16v1.39h-2.25v6.54h-1.65v-6.54Z"></path><path class="cls-1" d="m319.72,10.54h2.51l.9,2.86c.33,1.05.64,2.14.98,3.35h.03c.37-1.31.65-2.33.99-3.42l.85-2.79h2.5v7.93h-1.58v-4c0-.98.02-1.73.04-2.61h-.04c-.23.86-.5,1.79-.78,2.71l-1.2,3.89h-1.64l-1.36-4.28c-.25-.79-.46-1.6-.63-2.32h-.04c.02.67.03,1.39.03,2.2v4.4h-1.54v-7.93Z"></path></g></g></svg>