<svg width="205" height="31" viewBox="0 0 205 31" fill="none" xmlns="http://www.w3.org/2000/svg">
<path d="M189.417 17.9928C189.417 15.8122 196.937 15.0823 196.937 15.0823L196.831 12.9012C195.735 12.8711 191.453 13.0285 191.453 11.8828C191.453 10.3872 198.004 10.0226 200.3 9.94158L199.829 6.45172C195.872 6.4627 178.094 6.51026 177.367 11.3217C176.974 13.9194 182.092 14.533 182.092 14.533L182.091 14.6553C182.091 14.6553 175.389 15.8943 175.389 19.1385C175.389 25.7576 198.507 23.9042 204.491 22.257C204.491 22.257 203.911 19.3172 203.648 19.1808C203.409 19.0575 198.556 19.7748 194.705 19.6719C191.573 19.5877 189.417 19.088 189.417 17.9928Z" fill="black"/>
<path d="M141.249 3.43435C141.249 5.3123 139.189 6.6404 135.585 6.6404C132.043 6.6404 129.916 5.34105 129.916 3.43435C129.916 1.30682 133.034 0.179688 135.582 0.179688C138.058 0.179688 141.249 1.2786 141.249 3.43435Z" fill="black"/>
<path d="M173.987 19.0379C173.7 18.9425 171.615 19.4113 169.282 18.6027C165.548 17.3086 164.976 12.3017 169.408 9.44139L165.26 5.92905C157.942 8.74911 156.436 8.95008 155.751 9.10662C155.411 8.11172 153.823 6.44048 150.455 6.64119C148.622 6.75043 145.9 7.77878 145.112 9.65202C144.581 10.9143 144.903 12.3315 146.133 13.3C147.907 14.696 151.293 14.3482 151.293 14.3482C150.227 18.8144 140.943 21.8694 140.943 17.0826V8.86933H129.916V18.408C129.916 23.1732 135.764 24.4059 141.506 24.027C149.54 23.4967 154.059 18.886 155.706 13.9089L159.626 13.0042C159.626 13.0042 154.262 19.9954 160.955 23.1748C164.774 24.9887 171.796 23.5906 174.618 22.0866C174.618 22.0866 174.15 19.0922 173.987 19.0379ZM148.798 10.4156C148.87 9.22396 151.833 8.9182 152.013 10.297C152.013 10.297 148.719 11.7025 148.798 10.4156Z" fill="black"/>
<path d="M128.7 19.848C128.599 19.7419 126.706 20.2139 125.334 19.8788C123.819 19.5088 123.721 18.3754 123.721 16.868L123.721 8.80373C123.721 8.80373 112.367 8.80608 112.366 8.80608V16.4167C112.366 17.3141 112.441 19.4991 109.256 19.4991C107.823 19.4991 106.189 19.3786 106.189 17.3141V8.80373H94.8976L94.9072 18.5C94.9072 24.028 104.18 25.7186 113.707 22.1096C113.707 22.1096 118.167 25.6345 129.317 23.0426C129.317 23.0426 128.831 19.9855 128.7 19.848Z" fill="black"/>
<path d="M91.6274 28.5419L91.6229 8.65851L81.2898 8.66008C81.2898 8.66008 81.6397 15.8327 81.0964 17.2264C80.1726 20.2568 72.7269 19.8264 72.7287 16.2934C72.7313 12.1865 80.3113 12.8927 80.3113 12.8927L79.5524 8.6512C79.5524 8.6512 62.0271 7.0202 61.1876 16.388C60.9998 22.9175 72.6312 25.6393 81.2328 22.4254L81.2289 30.1797L91.6274 28.5419Z" fill="black"/>
<path d="M57.9894 19.0018C59.0287 17.946 58.9662 16.6618 58.0842 15.2629C56.7823 13.1978 53.1863 11.9886 52.327 10.3496C51.9497 9.62931 51.964 8.77397 52.5249 7.72079L52.3312 6.85577L40.1972 8.19616C39.4788 9.81434 40.2116 11.0766 40.2643 11.225C31.4992 20.6114 17.2847 20.6963 16.9063 17.3881C16.5514 14.2855 26.2699 13.6 26.2699 13.6L26.0796 10.5074C26.0796 10.5074 19.5335 11.0222 19.4352 9.00734C19.3338 6.92973 25.4574 6.2581 29.0079 6.21707L28.1016 1.2295C16.6057 1.10379 5.86016 3.63665 4.87284 7.97951C4.57648 9.28226 5.44647 11.5736 10.1884 12.5296V12.6961C10.1884 12.6961 0.227091 14.2685 0.294777 18.591C0.354884 22.436 8.94704 24.1438 15.0145 24.1864C27.3087 24.2722 33.79 20.1977 33.79 20.1977C32.072 24.8978 45.5331 25.4654 54.8784 22.0921C55.3232 21.9316 58.9145 23.4607 61.0953 24.4248C61.0953 24.4248 62.4903 21.0834 62.3037 20.6284C62.1339 20.2147 57.9894 19.0018 57.9894 19.0018ZM45.979 20.2515C44.769 21.7422 40.031 21.7278 40.3634 20.752C40.7209 19.7022 45.4213 19.9651 45.979 20.2515ZM36.8612 18.6553C36.8612 18.6553 39.7095 16.8521 42.637 14.285C42.637 14.285 45.1586 15.7581 46.3127 17.5096C46.3127 17.5096 42.2923 16.746 36.8612 18.6553Z" fill="black"/>
</svg>
