<svg preserveAspectRatio="xMidYMid meet" viewBox="0 0 281.000000 182.000000" height="182.000000pt" width="281.000000pt" xmlns="http://www.w3.org/2000/svg" version="1.0">

<g stroke="none" fill="#000000" transform="translate(0.000000,182.000000) scale(0.100000,-0.100000)">
<path d="M1164 1741 c-2 -2 -4 -138 -4 -302 l0 -297 214 -206 213 -206 112 0
111 0 0 505 0 505 -25 0 c-14 1 -61 1 -105 1 -44 0 -84 0 -90 -1 -6 0 -10
-121 -10 -341 l0 -341 -95 88 -95 87 0 253 0 253 -111 3 c-61 2 -113 1 -115
-1z"></path>
<path d="M2074 1741 c-2 -2 -4 -55 -4 -118 l0 -113 205 0 205 0 0 -270 0 -270
-210 0 -210 0 0 386 0 387 -120 -151 -120 -150 0 -356 0 -357 330 3 330 3 0
-169 0 -169 116 -144 c64 -79 117 -143 119 -141 1 2 5 369 8 815 l6 812 -325
3 c-179 2 -328 1 -330 -1z"></path>
<path d="M90 930 c0 -445 2 -810 4 -810 2 0 56 65 120 145 l116 144 0 300 0
300 113 3 112 3 92 115 92 115 -204 3 -205 2 0 130 0 130 210 0 210 0 0 115 0
115 -330 0 -330 0 0 -810z"></path>
<path d="M749 1245 c-217 -273 -395 -500 -397 -505 -2 -6 50 -10 131 -10 l135
0 43 53 c23 28 46 56 50 60 3 5 28 -19 54 -52 l48 -61 168 0 169 0 0 505 c0
278 -2 505 -3 505 -2 0 -181 -223 -398 -495z m139 -261 l-3 -37 -27 38 -27 38
27 35 27 36 3 -37 c2 -20 2 -53 0 -73z"></path>
</g>
</svg>
