<svg width="58" height="31" viewBox="0 0 58 31" fill="none" xmlns="http://www.w3.org/2000/svg">
<path d="M30.4548 15.1545C30.4548 14.3656 30.4504 13.5889 30.3327 12.9034H16.0873V19.7558H20.3158C20.3158 20.4407 18.3612 21.8487 15.4288 21.8487C12.2027 21.8487 8.55032 19.3124 8.47733 15.2318C8.40111 11.0041 12.0586 8.23917 15.4288 8.35956C18.1657 8.45732 19.211 9.24216 20.7373 10.7445C20.7373 10.7445 29.6185 10.7512 29.8512 10.7512C29.5864 9.73342 28.9306 8.19553 27.8086 6.60352C27.7148 6.47101 27.6192 6.33742 27.5182 6.20491C25.2744 3.2183 21.3759 0.186167 15.3183 0.179703C8.201 0.169738 2.70772 4.92801 0.896203 10.7539C0.874656 10.8242 0.853918 10.8945 0.832641 10.9653C0.832641 10.9686 0.831294 10.9734 0.829947 10.9761C0.458001 12.2797 0.25708 13.6554 0.25708 15.0761C0.270547 16.4365 0.447228 17.7387 0.76827 18.9674C1.91131 23.218 4.88634 26.7261 8.80322 28.6076C8.83474 28.6224 8.86598 28.6378 8.8983 28.6518C8.9185 28.6625 8.93924 28.6704 8.95782 28.6798C10.9344 29.5788 13.1548 30.0795 15.5123 30.0981C20.511 30.0577 24.9324 27.6116 27.6564 23.8682C27.7122 23.7909 30.4548 19.8236 30.4548 15.1545Z" fill="black"/>
<path d="M52.9614 23.803C52.9614 23.803 55.7377 20.2575 55.7482 15.5367C55.7703 6.26551 49.2759 0.282049 40.2159 0.268582C34.9671 0.260503 30.1281 3.05212 27.6499 6.40152C25.4457 9.3814 25.0824 11.8641 25.0824 13.67C24.9779 15.9167 25.1988 16.9792 25.1988 16.9792C25.5187 19.3186 26.4269 21.6198 27.8212 23.6269C30.4599 27.4263 34.8411 30.1797 40.2678 30.1797C43.8693 30.1802 46.4169 28.4886 46.8772 28.244L47.8317 29.3493H57.0569L52.9614 23.803ZM47.3456 17.2973L46.5581 16.3296H37.1993L41.0042 21.7302C37.045 22.5062 33.3029 19.142 33.3576 15.2884C33.4131 11.351 36.5906 8.42662 40.3904 8.45221C44.5618 8.4786 48.7229 13.0009 47.3456 17.2973Z" fill="black"/>
<path d="M29.8512 10.7553C29.5864 9.73746 28.9306 8.19769 27.8086 6.60648C27.7617 6.53888 27.7108 6.47128 27.6626 6.40314C27.6586 6.40852 27.654 6.41391 27.6499 6.4193C26.4662 8.01859 25.8144 9.47217 25.4638 10.7542C27.6265 10.7547 29.7391 10.7553 29.8512 10.7553Z" fill="black"/>
<path d="M30.4548 15.1545C30.4548 14.3656 30.4504 13.5889 30.3327 12.9034H25.108C25.0908 12.9034 25.0827 13.4335 25.0827 13.6823C24.9782 15.9294 25.199 16.9846 25.199 16.9846C25.5176 19.3224 26.425 21.6195 27.8169 23.6247C28.4121 22.6901 30.4548 19.184 30.4548 15.1545Z" fill="black"/>
</svg>
