<svg width="173" height="31" viewBox="0 0 173 31" fill="none" xmlns="http://www.w3.org/2000/svg">
<path d="M97.6713 21.1539C104.663 21.1539 104.663 15.9963 104.663 10.6668C104.663 5.30863 104.663 0.179688 97.6713 0.179688C90.6799 0.179688 90.6799 5.27998 90.6799 10.6668C90.6799 15.9963 90.6799 21.1539 97.6713 21.1539ZM97.6713 3.24559C100.049 3.24559 100.365 5.5092 100.365 10.6954C100.365 15.8817 100.049 18.1453 97.6713 18.1453C95.2931 18.1453 94.9779 15.9103 94.9779 10.6954C94.9779 5.48054 95.2931 3.24559 97.6713 3.24559ZM121.167 15.4519C121.167 12.6725 120.393 10.7241 117.385 10.323V10.2656C119.677 9.80719 120.852 8.14531 120.852 5.79574C120.852 1.46909 118.187 0.552177 114.949 0.552177H107.413V20.8101H114.921C116.697 20.8101 121.167 20.5808 121.167 15.4519ZM111.654 3.64674H114.262C115.666 3.61809 116.783 4.82152 116.697 6.22554C116.697 8.20261 115.408 8.80433 114.491 8.80433H111.654V3.64674ZM111.654 17.6869V11.9275H114.118C116.239 11.9275 116.926 13.0164 116.926 14.8215C116.926 17.6582 114.892 17.6869 114.004 17.6869H111.654ZM128.273 0.552177H124.032V20.8101H128.273V0.552177ZM76.6398 5.79574H76.6971L82.2271 20.8101H87.8145V0.552177H83.8604V14.7642H83.8031L78.4163 0.552177H72.6856V20.8101H76.6398V5.79574ZM143.001 17.6869H135.952V11.7556H142.256V8.63241H135.952V3.81865H142.772V0.523522H131.711V20.7814H143.001V17.6869ZM5.06381 11.7843H9.90622V20.8101H14.1469V0.552177H9.93487V8.66107H5.06381V0.552177H0.82312V20.8101H5.06381V11.7843ZM168.416 0.552177L165.178 9.11951L162.141 0.552177H144.147V3.84731H149.419V20.8387H153.488V3.84731H158.817L162.8 13.8187V20.8387H167.07V13.8187L172.743 0.552177H168.416ZM21.912 0.552177H17.6713V20.8101H21.912V0.552177ZM45.7515 11.7843H50.6226V20.8101H54.8632V0.552177H50.6226V8.66107H45.7515V0.552177H41.5108V20.8101H45.7515V11.7843ZM32.6856 21.1539C34.6054 21.0679 36.5251 20.8387 38.4162 20.4662V10.1797H31.8833V13.3029H34.1756V17.8015C33.4879 18.0593 32.8002 18.174 32.0552 18.2026C29.6483 18.2026 29.018 17.0851 29.018 10.7241C29.018 6.7986 29.018 3.21694 31.6541 3.21694C33.889 3.21694 34.2042 4.87883 34.1756 6.74129H38.4162C38.6741 2.5006 36.0953 0.179688 31.912 0.179688C24.9779 0.179688 24.72 5.36593 24.72 10.4949C24.72 18.2026 25.5509 21.1539 32.6856 21.1539ZM63.0867 21.1539C66.3246 21.1539 70.1641 20.5235 70.1641 15.28C70.1641 8.91894 61.6254 9.23413 61.6254 5.39458C61.5108 4.13384 62.571 3.10232 63.8031 3.24559C65.5223 3.24559 65.7802 4.79287 65.7802 6.31149H69.9062C70.1928 2.0708 68.1297 0.208343 64.0036 0.208343C58.8461 0.208343 57.3274 2.72983 57.3274 5.91035C57.3274 11.9562 65.8661 12.1854 65.8661 15.8244C66.038 17.0851 65.0065 18.2026 63.7458 18.1167C61.4248 18.1167 61.3389 16.4834 61.3389 14.535H57.0982C56.8403 18.0593 57.8432 21.1539 63.0867 21.1539ZM0.82312 30.1797H167.07V27.0565H0.82312V30.1797Z" fill="black"/>
</svg>
