<?xml version="1.0" encoding="utf-8"?>
<!-- Generator: Adobe Illustrator 27.9.0, SVG Export Plug-In . SVG Version: 6.00 Build 0)  -->
<svg version="1.1" id="Layer_1" xmlns="http://www.w3.org/2000/svg" xmlns:xlink="http://www.w3.org/1999/xlink" x="0px" y="0px"
	 viewBox="0 0 137.7 67.7" style="enable-background:new 0 0 137.7 67.7;" xml:space="preserve">
<style type="text/css">
	.st0{fill:#FFFFFF;}
</style>
<path d="M0.2,1.2h137.5v64.2H0.2V1.2z M130,59.1V7.7h-5.9v38.5c-1-0.9-1.6-1.8-2.1-2.7C115.5,32,109,20.5,102.4,9.1
	c-0.3-0.6-1-1.4-1.6-1.5c-1.8-0.2-3.6-0.1-5.4-0.1v51.5h6v-39c0.7,1,1.1,1.4,1.3,1.8c6.3,11,12.7,21.9,18.7,33
	c1.9,3.6,4.1,5.1,8,4.3C129.5,59.3,129.7,59.2,130,59.1L130,59.1z M51.3,59.2c6.6,0,12.9,0.3,19.3-0.1c6.6-0.3,11.5-3.8,14-10
	c4.4-10.8,4.6-21.7-0.2-32.4c-2.3-5-6.3-8.5-11.8-8.9c-7-0.5-14.1-0.1-21.2-0.1C51.3,7.7,51.3,59.2,51.3,59.2z M7.3,41.9
	c1.2,3.8,1.7,7,3.1,9.8c4,7.6,14.6,10.8,23.2,7.3c7.3-3,11.2-10.4,9.3-18c-1.4-5.7-5.3-8.9-10.6-10.6c-4.2-1.3-8.5-2.6-12.6-4.1
	c-2.7-1-4.1-3.1-4-6.1c0.1-3,1.5-5.1,4.3-6.3c7.5-3.4,14-0.1,16.2,8.1h5.5c0.4-5.9-2.8-11.4-8-13.9c-6.2-3-15.3-1.9-19.7,2.1
	c-6,5.3-7.2,19,4.5,23.3c4.1,1.5,8.2,2.6,12.4,4c4.2,1.3,6.3,3.9,6.3,7.5c0,3.7-2.2,6.8-5.8,8c-7.3,2.3-16.3-0.6-17.4-9.5
	C14,43,13.3,42.1,12.8,42C11.3,41.8,9.8,41.9,7.3,41.9L7.3,41.9z"/>
<path class="st0" d="M130,59.1c-0.4,0.1-0.5,0.1-0.7,0.2c-3.9,0.8-6.1-0.7-8-4.3c-6-11.2-12.4-22-18.7-33c-0.3-0.5-0.6-0.9-1.3-1.8
	v39h-6V7.6c1.9,0,3.7-0.1,5.4,0.1c0.6,0.1,1.3,0.9,1.6,1.5c6.6,11.4,13.1,22.9,19.6,34.3c0.5,0.9,1.1,1.9,2.1,2.7V7.7h5.9V59.1
	L130,59.1z"/>
<path class="st0" d="M51.3,59.2V7.7c7.2,0,14.3-0.4,21.3,0.1c5.5,0.4,9.6,3.9,11.8,8.9c4.8,10.7,4.7,21.6,0.2,32.4
	c-2.5,6.2-7.4,9.6-14,10C64.3,59.5,57.9,59.2,51.3,59.2z M57.4,52.7c4.4,0,8.5,0.2,12.5-0.1c3.8-0.3,7.1-1.9,8.7-5.6
	c3.7-8.7,4-17.6,0.4-26.4c-1-2.4-3.4-5.1-5.7-5.7c-5.1-1.2-10.5-1.1-15.9-1.6C57.4,13.4,57.4,52.7,57.4,52.7z"/>
<path class="st0" d="M7.3,41.9c2.4,0,4-0.1,5.4,0.1c0.5,0.1,1.3,1,1.4,1.6c1.1,9,10.1,11.8,17.4,9.5c3.7-1.2,5.8-4.3,5.8-8
	c0-3.6-2.1-6.2-6.3-7.5c-4.1-1.3-8.3-2.5-12.4-4C7,29.3,8.2,15.6,14.2,10.3c4.5-4,13.5-5.1,19.7-2.1c5.2,2.5,8.4,8,8,13.9h-5.5
	c-2.2-8.3-8.7-11.5-16.2-8.1c-2.8,1.2-4.1,3.3-4.3,6.3c-0.1,3,1.3,5.1,4,6.1c4.1,1.5,8.4,2.7,12.6,4.1c5.3,1.7,9.2,4.9,10.6,10.6
	c1.8,7.6-2,15.1-9.3,18c-8.6,3.5-19.3,0.3-23.2-7.3C9,48.9,8.5,45.7,7.3,41.9L7.3,41.9z"/>
<path d="M57.4,52.7V13.4c5.4,0.5,10.8,0.4,15.9,1.6c2.3,0.5,4.7,3.3,5.7,5.7c3.7,8.7,3.4,17.6-0.4,26.4c-1.6,3.8-4.9,5.3-8.7,5.6
	C65.9,53,61.8,52.7,57.4,52.7z"/>
</svg>
