<?xml version="1.0" encoding="utf-8"?>
<!-- Generator: Adobe Illustrator 27.9.0, SVG Export Plug-In . SVG Version: 6.00 Build 0)  -->
<svg version="1.1" id="Layer_1" xmlns="http://www.w3.org/2000/svg" xmlns:xlink="http://www.w3.org/1999/xlink" x="0px" y="0px"
	 viewBox="0 0 66.1 67.7" style="enable-background:new 0 0 66.1 67.7;" xml:space="preserve">
<style type="text/css">
	.st0{fill:#FFFFFF;}
</style>
<path d="M0.1,33.6C0.1,26.8,0,20,0.2,13.2c0-1.3,0.6-2.8,1.5-3.8c2.7-3,5.6-5.7,8.5-8.5c0.5-0.5,1.4-0.7,2.2-0.7
	c13.9,0,27.8-0.1,41.6,0c0.9,0,2.1,0.6,2.8,1.3c2.8,2.7,5.6,5.4,8.3,8.3c0.7,0.7,1.1,1.9,1.1,2.8c0.1,13.9,0.1,27.8,0,41.7
	c0,1.1-0.8,2.3-1.4,3.3c-0.3,0.5-0.9,0.9-1.3,1.3c-2.8,2.7-5.1,6.5-8.5,7.8c-3.3,1.4-7.7,0.3-11.6,0.3c-9.9,0-19.8-0.1-29.7,0
	c-2.1,0-3.6-0.4-4.9-2.1c-1.6-2-3.3-4-5.2-5.5c-2.9-2.3-3.6-5-3.4-8.5C0.3,45.2,0.1,39.4,0.1,33.6L0.1,33.6z M33.1,37.6
	c4.4,5.7,8.5,10.7,12.2,16.1c2.1,3.1,4.6,3.5,8,2.9c-0.7-1-1.2-1.9-1.8-2.8c-4.4-6.2-8.8-12.4-13.4-18.5c-1.1-1.5-1.3-2.7,0-4.3
	c3.2-4,6.3-8.2,9.4-12.3c2.5-3.3,4.9-6.6,7.5-10.2c-3.3-0.5-5.5-0.4-7.6,2.4c-4.4,6-9.4,11.6-14.2,17.6c-4.9-6-9.8-11.6-14.2-17.5
	c-2.1-2.9-4.4-3.1-7.7-2.4c5.7,7.7,11.3,15.1,16.9,22.5c1.1,1.5,1.3,2.4,0.1,4c-2.7,3.4-5.1,7-7.6,10.5c-2.5,3.6-5.1,7.2-7.8,11
	c3.5,0.3,6.4,0.6,8-2.9c0.3-0.7,1-1.3,1.5-1.9C25.7,47.2,29.2,42.6,33.1,37.6L33.1,37.6z"/>
<path class="st0" d="M33.1,37.6c-3.9,5-7.4,9.6-10.9,14.2c-0.5,0.7-1.1,1.2-1.5,1.9c-1.6,3.5-4.5,3.2-8,2.9c2.8-3.9,5.3-7.5,7.8-11
	c2.5-3.5,5-7.1,7.6-10.5c1.2-1.5,1-2.5-0.1-4c-5.6-7.4-11.2-14.8-16.9-22.5c3.3-0.6,5.6-0.5,7.7,2.4c4.4,6,9.3,11.6,14.2,17.5
	c4.9-5.9,9.8-11.6,14.2-17.6c2.1-2.8,4.4-2.9,7.6-2.4c-2.6,3.6-5,6.9-7.5,10.2C44.3,22.8,41.3,27,38,31c-1.3,1.6-1.1,2.7,0,4.3
	c4.5,6.1,8.9,12.3,13.4,18.5c0.6,0.9,1.2,1.8,1.8,2.8c-3.5,0.7-5.9,0.2-8-2.9C41.6,48.3,37.4,43.3,33.1,37.6L33.1,37.6z"/>
</svg>
